<svg width="39" height="51" viewBox="0 0 39 51" fill="none" xmlns="http://www.w3.org/2000/svg">
<g clip-path="url(#clip0_6_350)">
<path d="M3.68579 11.9368L19.1317 2.82703L19.1317 21.2173L3.68579 11.9368Z" fill="#FFD113"/>
<path d="M19.1318 2.82703L34.6271 12.0465L19.1318 21.2173L19.1318 2.82703Z" fill="#C4892B"/>
<path d="M19.1318 2.82717L19.1318 0.534485L38.3129 12.0467L34.6271 12.0467L19.1318 2.82717Z" fill="#F6ED56"/>
<path d="M19.0331 23.632L0 11.8759L3.68581 11.9369L19.1317 21.2174L19.0331 23.632Z" fill="#F9EE5C"/>
<path d="M19.1317 0.534546L-6.91186e-10 11.876L3.68581 11.937L19.1317 2.82723L19.1317 0.534546Z" fill="#F8ED5A"/>
<path d="M0 11.8759L19.0331 23.632L19.0331 50.5345L-1.64472e-09 38.8637L0 11.8759Z" fill="#C4892B"/>
<path d="M19.0332 23.6319L38.3129 12.0465L38.3129 39.1075L19.0332 50.5343L19.0332 23.6319Z" fill="#FFD113"/>
<path d="M7.13696 22.6806L14.1018 26.9977L14.1018 34.1684L7.13696 30.205L7.13696 22.6806Z" fill="#FFD113"/>
<path d="M4.86901 21.2784L7.13721 22.6808L7.13721 30.1808L4.83203 31.2174L4.86901 21.2784Z" fill="#F8ED59"/>
<path d="M7.13721 30.1808L14.102 34.1076L14.102 36.7783L4.83203 31.2174L7.13721 30.1808Z" fill="#F9EE5C"/>
<path d="M24.6299 31.6686L32.7781 31.6686L32.7781 47.1442L24.6299 47.2052L24.6299 31.6686Z" fill="#4D4E4E"/>
<path d="M30.448 28.1564L32.7778 26.6076L32.7778 31.6686L30.448 31.6686L30.448 28.1564Z" fill="#F7ED59"/>
<path d="M24.6299 31.6686L30.4483 28.1564L30.4853 31.6686L24.6299 31.6686Z" fill="#C78A2B"/>
<path d="M34.627 12.0465L38.3129 12.0465L19.0332 23.6319L19.1318 21.2172L34.627 12.0465Z" fill="#F8EE5D"/>
</g>
<defs>
<clipPath id="clip0_6_350">
<rect width="38.3128" height="50" fill="white" transform="translate(0 0.534546)"/>
</clipPath>
</defs>
</svg>
